#!OML:ASF F:\VICON\USERDATA\INSTALL\rory3\rory3.ASF
:FULLY-SPECIFIED
:DEGREES
3082
root -6.92868 21.0953 -1.00649 -897.527 -203.329 900.673
lowerback 9.79234 -3.70594 -4.40322
upperback -4.42127 -6.15245 -6.09977
thorax -10.532 -2.89629 -2.97102
lowerneck -19.8371 -15.2547 -13.9376
upperneck -11.2848 -16.8108 15.1025
head 2.07868 -7.48752 5.29538
rclavicle -4.07509e-014 -1.59028e-015
rhumerus 87.8417 -19.4193 -35.284
rradius 26.2939
rwrist 9.07629
rhand 23.0672 11.8077
rfingers 7.12502
rthumb 47.381 -10.6889
lclavicle -4.07509e-014 -1.59028e-015
lhumerus 69.5486 -9.45583 6.32512
lradius 56.5453
lwrist 6.58545
lhand -3.54073 9.63407
lfingers 7.12502
lthumb 22.1949 38.3798
rfemur -4.82865 7.54244 27.0894
rtibia 28.7757
rfoot 11.0926 -22.36
rtoes 14.4753
lfemur -34.2753 -2.6845 -6.06873
ltibia 37.0451
lfoot -0.833499 -10.6074
ltoes -22.4487
3083
root -6.92444 21.0006 -1.0474 -897.543 -202.706 900.522
lowerback 9.73269 -3.43361 -3.90826
upperback -4.41931 -5.72047 -6.1516
thorax -10.5342 -2.72759 -3.38669
lowerneck -19.3977 -15.2036 -13.9509
upperneck -11.9096 -16.7494 15.2143
head 1.83893 -7.47597 5.38456
rclavicle 1.25234e-014 4.77083e-015
rhumerus 86.8791 -17.2086 -33.8917
rradius 27.0067
rwrist 7.21415
rhand 24.1292 11.8972
rfingers 7.12502
rthumb 48.3605 -10.1456
lclavicle 1.25234e-014 4.77083e-015
lhumerus 68.0151 -9.26145 5.6502
lradius 57.5669
lwrist 5.64032
lhand -1.61375 8.43427
lfingers 7.12502
lthumb 24.0438 36.9481
rfemur -4.80749 7.62751 27.1071
rtibia 28.1842
rfoot 11.4031 -21.4171
rtoes 13.9362
lfemur -34.5527 -2.93354 -5.53274
ltibia 37.1834
lfoot -1.60271 -8.79109
ltoes -23.542
3084
root -6.91968 20.8992 -1.08814 -897.546 -202.079 900.353
lowerback 9.65049 -3.15949 -3.44313
upperback -4.40034 -5.28356 -6.16786
thorax -10.4886 -2.55305 -3.75033
lowerneck -19.3226 -15.1893 -13.9303
upperneck -12.0959 -16.7269 15.1629
head 1.76186 -7.46974 5.38123
rclavicle -5.00937e-014 -4.45278e-014
rhumerus 86.2524 -14.9657 -33.1295
rradius 27.4623
rwrist 6.12446
rhand 24.1317 12.4479
rfingers 7.12502
rthumb 48.3628 -9.59381
lclavicle -5.00937e-014 -4.45278e-014
lhumerus 66.2903 -9.02166 4.72539
lradius 58.9608
lwrist 4.81055
lhand 0.0365831 9.02186
lfingers 7.12502
lthumb 25.6254 37.3176
rfemur -4.82193 7.61236 27.1505
rtibia 27.6073
rfoot 11.7564 -20.4286
rtoes 13.3883
lfemur -34.7687 -3.58397 -4.81369
ltibia 37.3444
lfoot -2.2605 -6.74469
ltoes -23.3731
3085
root -6.91465 20.7882 -1.12672 -897.423 -201.42 900.328
lowerback 9.5087 -2.87552 -3.08737
upperback -4.44297 -4.8542 -6.24081
thorax -10.4669 -2.3765 -4.11676
lowerneck -18.9246 -15.1391 -14.1463
upperneck -12.3879 -16.6545 15.5133
head 1.67195 -7.43988 5.55451
rclavicle 4.85035e-014 2.70347e-014
rhumerus 85.6092 -12.7643 -32.4162
rradius 27.9045
rwrist 4.97633
rhand 23.4346 12.2801
rfingers 7.12502
rthumb 47.7201 -10.0623
lclavicle 4.85035e-014 2.70347e-014
lhumerus 64.3502 -8.71402 4.06701
lradius 60.4108
lwrist 4.78894
lhand 1.45744 8.26673
lfingers 7.12502
lthumb 26.9856 36.3594
rfemur -4.91388 7.48687 27.0138
rtibia 27.0552
rfoot 12.0555 -19.5758
rtoes 13.3186
lfemur -34.926 -4.29389 -4.21033
ltibia 37.4878
lfoot -2.73193 -4.63064
ltoes -21.8489
3086
root -6.90667 20.6591 -1.1651 -897.284 -200.718 900.391
lowerback 9.39252 -2.57875 -2.82048
upperback -4.4243 -4.41783 -6.32684
thorax -10.3792 -2.19025 -4.44706
lowerneck -18.9335 -15.1774 -14.0327
upperneck -12.5059 -16.7142 15.516
head 1.63664 -7.4732 5.53524
rclavicle 7.95139e-015 -2.70347e-014
rhumerus 84.927 -10.7864 -31.5172
rradius 28.5252
rwrist 3.74628
rhand 22.1938 11.6777
rfingers 7.12502
rthumb 46.573 -11.1743
lclavicle 7.95139e-015 -2.70347e-014
lhumerus 62.4807 -8.37248 3.90346
lradius 61.6439
lwrist 4.45895
lhand 1.57148 8.02187
lfingers 7.12502
lthumb 27.0947 36.0976
rfemur -5.01815 7.19376 26.7413
rtibia 26.5301
rfoot 12.219 -18.8508
rtoes 13.3081
lfemur -35.0222 -4.59781 -3.82481
ltibia 37.6055
lfoot -2.57586 -3.42027
ltoes -20.7014
